<?xml version="1.0" standalone="no"?>
<!DOCTYPE svg PUBLIC "-//W3C//DTD SVG 20010904//EN"
 "http://www.w3.org/TR/2001/REC-SVG-20010904/DTD/svg10.dtd">
<svg version="1.0" xmlns="http://www.w3.org/2000/svg"
 width="260.000000pt" height="260.000000pt" viewBox="0 0 260.000000 260.000000"
 preserveAspectRatio="xMidYMid meet">
<metadata>
Created by potrace 1.11, written by Peter Selinger 2001-2013
</metadata>
<g transform="translate(0.000000,260.000000) scale(0.100000,-0.100000)"
fill="#000000" stroke="none">
<path d="M0 1300 l0 -1300 1300 0 1300 0 0 1300 0 1300 -1300 0 -1300 0 0
-1300z m1955 509 c63 -23 160 -107 190 -163 11 -19 17 -37 15 -39 -3 -2 -45
-27 -95 -55 l-90 -52 -34 40 c-44 54 -78 70 -146 70 -46 0 -60 -4 -80 -25 -16
-15 -25 -36 -25 -54 0 -44 44 -72 200 -126 142 -49 185 -72 237 -125 86 -88
84 -267 -3 -369 -136 -159 -458 -162 -618 -7 -45 44 -91 120 -82 135 3 4 47
32 98 61 85 50 93 52 102 35 19 -31 68 -85 88 -96 33 -18 117 -27 165 -18 59
11 83 33 83 75 0 48 -43 78 -163 115 -149 46 -218 81 -269 138 -50 55 -68 104
-68 183 0 228 251 369 495 277z m-1002 -4 c209 -44 363 -222 383 -443 24 -254
-144 -491 -384 -541 -30 -6 -152 -11 -277 -11 l-225 0 0 505 0 505 218 0 c150
0 238 -5 285 -15z"/>
<path d="M680 1315 l0 -287 123 4 c108 4 128 7 174 31 106 55 157 174 133 309
-14 74 -29 105 -72 149 -54 54 -106 70 -239 76 l-119 6 0 -288z"/>
</g>
</svg>
